# File created by Blade
# Date/Time:  Tue Jan 27 18:09:10 2015
# Frame Rate: 120.000 fps
#------------------------------------------------------
:FULLY-SPECIFIED
:DEGREES
1797
root -1.294464 31.850296 -6.787906 5.351849 11.981196 3.733325
Spine -7.858794 -3.693051 -5.232295
Head 5.505139 -35.375407 -1.857698
LeftShoulder -10.866993 16.594395 3.960483
LeftArm 27.720193 41.741863 -65.733302
LeftForeArm -1.806003 -0.000000 15.106949
LeftHand -10.787233 -0.000000 -5.783160
LeftHandThumb1 -26.253704 0.000000 33.147579
RightShoulder -1.407496 20.528995 -32.896656
RightArm 39.357250 45.130329 61.104922
RightForeArm 21.057894 -0.000000 31.156292
RightHand -11.025770 -0.000000 1.663752
RightHandThumb1 -24.326973 -0.000000 -32.862282
LeftUpLeg -1.991131 -4.097374 -1.314335
LeftLeg 1.430483 -0.000000 -0.000000
LeftFoot -16.807733 15.149524 -24.199908
LeftToeBase 8.755599 -0.000000 -0.000000
RightUpLeg 2.265516 -7.954733 -4.082736
RightLeg -3.185786 -0.000000 0.000000
RightFoot -15.808604 -14.943405 10.202427
RightToeBase 5.187319 -0.000000 -0.000000
1798
root -1.295219 31.849496 -6.784484 5.320902 11.955581 3.718508
Spine -7.878814 -3.624382 -5.282431
Head 5.654947 -35.446050 -1.865141
LeftShoulder -10.857546 16.633011 3.973249
LeftArm 27.779210 41.702129 -65.701861
LeftForeArm -1.781648 -0.000000 15.114547
LeftHand -10.827915 -0.000000 -5.723391
LeftHandThumb1 -26.253704 0.000000 33.147579
RightShoulder -1.375532 20.418597 -32.863882
RightArm 38.490256 43.683951 59.475749
RightForeArm 21.123357 -0.000000 28.364354
RightHand -11.346847 0.000000 1.412015
RightHandThumb1 -24.326973 -0.000000 -32.862282
LeftUpLeg -1.958762 -4.077360 -1.300733
LeftLeg 1.438443 -0.000000 -0.000000
LeftFoot -16.828264 15.148974 -24.196103
LeftToeBase 8.738746 -0.000000 -0.000000
RightUpLeg 2.337489 -7.799927 -4.073715
RightLeg -3.273588 -0.000000 0.000000
RightFoot -15.786452 -15.046319 10.236219
RightToeBase 5.162098 -0.000000 -0.000000
1799
root -1.295101 31.848688 -6.780815 5.282045 11.936371 3.706950
Spine -7.881412 -3.568727 -5.329614
Head 5.775371 -35.471512 -1.866206
LeftShoulder -10.857895 16.645306 3.981996
LeftArm 27.806347 41.658460 -65.695563
LeftForeArm -1.772983 0.000000 15.111372
LeftHand -10.832809 -0.000000 -5.707166
LeftHandThumb1 -26.253704 0.000000 33.147579
RightShoulder -1.346682 20.332120 -32.813062
RightArm 37.718568 42.214185 57.962973
RightForeArm 21.505541 0.000000 25.616140
RightHand -11.655208 -0.000000 1.445497
RightHandThumb1 -24.326973 -0.000000 -32.862282
LeftUpLeg -1.912692 -4.063385 -1.295100
LeftLeg 1.440513 -0.000000 -0.000000
LeftFoot -16.853296 15.150806 -24.197221
LeftToeBase 8.723480 -0.000000 -0.000000
RightUpLeg 2.388214 -7.762544 -4.070216
RightLeg -3.293711 -0.000000 0.000000
RightFoot -15.788740 -15.038394 10.255906
RightToeBase 5.199100 -0.000000 -0.000000
1800
root -1.292322 31.847625 -6.777716 5.247807 11.912777 3.719450
Spine -7.882685 -3.509211 -5.394205
Head 5.885617 -35.505128 -1.876882
LeftShoulder -10.876546 16.645100 3.995992
LeftArm 27.841547 41.651412 -65.684491
LeftForeArm -1.765308 -0.000000 15.115088
LeftHand -10.874336 -0.000000 -5.723563
LeftHandThumb1 -26.253704 0.000000 33.147579
RightShoulder -1.340934 20.251752 -32.799169
RightArm 37.049187 40.680697 56.597394
RightForeArm 21.878522 -0.000000 22.893744
RightHand -12.004176 -0.000000 1.527788
RightHandThumb1 -24.326973 -0.000000 -32.862282
LeftUpLeg -1.863458 -4.068787 -1.316917
LeftLeg 1.432238 -0.000000 -0.000000
LeftFoot -16.863515 15.196174 -24.172995
LeftToeBase 8.664730 -0.000000 -0.000000
RightUpLeg 2.389238 -7.877867 -4.090643
RightLeg -3.214367 -0.000000 0.000000
RightFoot -15.822632 -14.936651 10.198075
RightToeBase 5.136649 -0.000000 -0.000000
1801
root -1.293982 31.847267 -6.774830 5.218925 11.897006 3.700935
Spine -7.892305 -3.460313 -5.431444
Head 5.989960 -35.520286 -1.877121
LeftShoulder -10.894960 16.659288 4.008099
LeftArm 27.877422 41.620672 -65.679391
LeftForeArm -1.768744 -0.000000 15.110485
LeftHand -10.862157 -0.000000 -5.691076
LeftHandThumb1 -26.253704 0.000000 33.147579
RightShoulder -1.357802 20.073258 -32.771636
RightArm 36.666837 39.223276 55.531104
RightForeArm 22.239053 -0.000000 20.194915
RightHand -12.330356 -0.000000 1.844523
RightHandThumb1 -24.326973 -0.000000 -32.862282
LeftUpLeg -1.839043 -4.034716 -1.299499
LeftLeg 1.448978 -0.000000 -0.000000
LeftFoot -16.905168 15.155571 -24.218686
LeftToeBase 8.757394 -0.000000 -0.000000
RightUpLeg 2.448633 -7.751138 -4.076938
RightLeg -3.279935 -0.000000 0.000000
RightFoot -15.806156 -15.013646 10.249767
RightToeBase 5.251950 -0.000000 -0.000000
1802
root -1.292814 31.846394 -6.771470 5.181769 11.877900 3.702738
Spine -7.885393 -3.395766 -5.482132
Head 6.072034 -35.539192 -1.880904
LeftShoulder -10.888508 16.649066 4.033163
LeftArm 27.853465 41.588580 -65.722053
LeftForeArm -1.751038 -0.000000 15.134387
LeftHand -10.834155 -0.000000 -5.646094
LeftHandThumb1 -26.253704 0.000000 33.147579
RightShoulder -1.392741 19.931301 -32.788430
RightArm 36.364222 37.846243 54.712023
RightForeArm 22.482049 0.000000 17.604636
RightHand -12.676875 0.000000 2.114098
RightHandThumb1 -24.326973 -0.000000 -32.862282
LeftUpLeg -1.791668 -4.021971 -1.307826
LeftLeg 1.443915 -0.000000 -0.000000
LeftFoot -16.911243 15.168163 -24.210675
LeftToeBase 8.779312 -0.000000 -0.000000
RightUpLeg 2.451519 -7.874494 -4.086169
RightLeg -3.201513 -0.000000 0.000000
RightFoot -15.833206 -14.887477 10.201971
RightToeBase 5.217658 -0.000000 -0.000000
1803
root -1.291960 31.845929 -6.769269 5.154800 11.868305 3.703514
Spine -7.883125 -3.325936 -5.539128
Head 6.138308 -35.570156 -1.856164
LeftShoulder -10.872231 16.625352 4.072981
LeftArm 27.816652 41.558620 -65.787624
LeftForeArm -1.728509 -0.000000 15.149017
LeftHand -10.815167 -0.000000 -5.618549
LeftHandThumb1 -26.253704 0.000000 33.147579
RightShoulder -1.436119 19.740754 -32.810394
RightArm 36.257150 36.716221 54.244882
RightForeArm 22.936508 -0.000000 15.093515
RightHand -13.129970 -0.000000 2.515875
RightHandThumb1 -24.326973 -0.000000 -32.862282
LeftUpLeg -1.763115 -4.021706 -1.313125
LeftLeg 1.454070 -0.000000 -0.000000
LeftFoot -16.923808 15.185409 -24.200595
LeftToeBase 8.749511 -0.000000 -0.000000
RightUpLeg 2.462318 -7.930725 -4.092101
RightLeg -3.159459 -0.000000 0.000000
RightFoot -15.844425 -14.842369 10.168334
RightToeBase 5.204944 -0.000000 -0.000000
1804
root -1.293319 31.845216 -6.766571 5.125344 11.865846 3.700096
Spine -7.875155 -3.253402 -5.600779
Head 6.192495 -35.622817 -1.817514
LeftShoulder -10.850828 16.601319 4.130313
LeftArm 27.789287 41.554384 -65.842331
LeftForeArm -1.733136 -0.000000 15.173066
LeftHand -10.805592 -0.000000 -5.602169
LeftHandThumb1 -26.253704 0.000000 33.147579
RightShoulder -1.470578 19.553024 -32.821181
RightArm 36.219365 35.744547 54.024864
RightForeArm 23.624754 0.000000 12.744628
RightHand -13.579676 -0.000000 2.643670
RightHandThumb1 -24.326973 -0.000000 -32.862282
LeftUpLeg -1.733571 -4.012387 -1.310880
LeftLeg 1.464496 -0.000000 -0.000000
LeftFoot -16.936036 15.186918 -24.190405
LeftToeBase 8.723636 -0.000000 -0.000000
RightUpLeg 2.493554 -7.921522 -4.090042
RightLeg -3.157188 -0.000000 0.000000
RightFoot -15.858077 -14.831786 10.181351
RightToeBase 5.155345 -0.000000 -0.000000
1805
root -1.294452 31.844866 -6.764638 5.103348 11.869739 3.693283
Spine -7.871243 -3.171837 -5.652445
Head 6.227924 -35.686397 -1.777956
LeftShoulder -10.825150 16.585611 4.174900
LeftArm 27.776367 41.530815 -65.889391
LeftForeArm -1.685688 -0.000000 15.189339
LeftHand -10.821987 -0.000000 -5.594649
LeftHandThumb1 -26.253704 0.000000 33.147579
RightShoulder -1.477462 19.384109 -32.862817
RightArm 36.177318 35.180560 54.205352
RightForeArm 24.529362 -0.000000 10.787370
RightHand -14.287078 -0.000000 2.703301
RightHandThumb1 -24.326973 -0.000000 -32.862282
LeftUpLeg -1.715270 -4.006397 -1.303383
LeftLeg 1.474516 -0.000000 -0.000000
LeftFoot -16.946979 15.170384 -24.206153
LeftToeBase 8.752734 -0.000000 -0.000000
RightUpLeg 2.511919 -7.934871 -4.084409
RightLeg -3.144378 -0.000000 0.000000
RightFoot -15.859892 -14.812932 10.174392
RightToeBase 5.148861 -0.000000 -0.000000
1806
root -1.295760 31.844581 -6.761952 5.084021 11.869761 3.686936
Spine -7.867163 -3.083588 -5.712063
Head 6.237362 -35.737531 -1.702057
LeftShoulder -10.812337 16.553674 4.233230
LeftArm 27.745679 41.530104 -65.952895
LeftForeArm -1.650667 -0.000000 15.214031
LeftHand -10.824623 -0.000000 -5.602802
LeftHandThumb1 -26.253704 0.000000 33.147579
RightShoulder -1.473562 19.283920 -32.852406
RightArm 36.098990 34.802521 54.583491
RightForeArm 25.514747 0.000000 9.203473
RightHand -15.121668 0.000000 2.507499
RightHandThumb1 -24.326973 -0.000000 -32.862282
LeftUpLeg -1.700241 -3.992986 -1.296824
LeftLeg 1.492866 -0.000000 -0.000000
LeftFoot -16.969369 15.169732 -24.188192
LeftToeBase 8.741429 -0.000000 -0.000000
RightUpLeg 2.532046 -7.917856 -4.078253
RightLeg -3.137835 -0.000000 0.000000
RightFoot -15.879591 -14.820018 10.205877
RightToeBase 5.135445 -0.000000 -0.000000
1807
root -1.297509 31.844495 -6.760389 5.071439 11.881064 3.679262
Spine -7.865775 -3.008936 -5.762093
Head 6.244518 -35.773232 -1.639480
LeftShoulder -10.801375 16.518289 4.280754
LeftArm 27.729170 41.539581 -65.999857
LeftForeArm -1.626701 -0.000000 15.215154
LeftHand -10.793077 -0.000000 -5.633574
LeftHandThumb1 -26.253704 0.000000 33.147579
RightShoulder -1.432119 19.181908 -32.822963
RightArm 35.934482 34.712123 55.163837
RightForeArm 26.709639 -0.000000 8.209115
RightHand -16.406826 -0.000000 1.971962
RightHandThumb1 -24.326973 -0.000000 -32.862282
LeftUpLeg -1.695850 -3.979362 -1.287964
LeftLeg 1.509797 -0.000000 -0.000000
LeftFoot -16.963793 15.158596 -24.170088
LeftToeBase 8.678463 -0.000000 -0.000000
RightUpLeg 2.544232 -7.922658 -4.068816
RightLeg -3.130815 -0.000000 0.000000
RightFoot -15.874389 -14.824533 10.183804
RightToeBase 5.126580 -0.000000 -0.000000
